<svg width="2311" height="1258" fill="none" xmlns="http://www.w3.org/2000/svg"><mask id="a" style="mask-type:alpha" maskUnits="userSpaceOnUse" x="0" y="0" width="2311" height="1258"><path d="M1981.94 1252.6c7.02-5.4 7.02-5.94.54-25.38-3.23-9.92-7.77-19.36-13.49-28.08-5.4-7.56-5.94-10.26-1.62-18.9 2.7-5.4 7.02-10.26 9.17-10.8l10.8-.54c9.18-.54 13.5-14.58 8.1-24.84a10.836 10.836 0 0 1-1.63-6.66c.2-2.34 1.15-4.55 2.71-6.3 4.86-5.4 4.32-6.48-8.1-33.48-3.78-8.1-4.32-11.88-.54-16.2 3.78-4.32 3.24-6.48-1.62-10.8a21.074 21.074 0 0 1-5.4-14.04c0-4.86-1.62-9.18-3.24-9.18-3.24 0-14.57 16.2-13.49 19.98 0 1.62-3.78 4.86-9.18 7.56a26.454 26.454 0 0 0-11.88 14.04c-1.08 5.4-3.78 9.18-5.4 9.18-3.32.98-6.31 2.84-8.64 5.4-8.63 8.1-20.51 3.24-28.61-10.8-4.86-9.18-9.72-12.96-16.74-13.5l-24.83-2.16c-8.1-1.08-15.66 0-16.2 1.62-3.24 4.86-17.28 1.08-28.61-7.02a88.19 88.19 0 0 0-25.92-15.12c-7.56-2.16-7.56-2.7 1.08-5.4l9.18-2.16-10.26-10.8c-4.21-4.13-7.52-9.1-9.72-14.58.01-.54-.1-1.08-.33-1.58-.22-.5-.55-.94-.96-1.3-.41-.36-.89-.63-1.41-.78-.53-.16-1.08-.2-1.61-.12a39.913 39.913 0 0 1-14.58-9.72c-9.72-9.18-12.42-9.72-39.41-8.1-42.12 3.24-46.97 3.78-46.97 8.1 0 2.16-5.94 8.1-13.5 12.96-15.66 9.72-17.28 16.2-5.4 23.22 8.1 5.4 10.26 23.76 2.7 31.32-2.7 2.16-4.86 16.2-5.4 30.78 0 23.22-1.08 27.54-10.8 37.8l-10.8 11.34-17.27-5.94c-14.04-5.4-18.36-5.4-23.76-1.62-5.4 3.78-8.64 4.32-17.27 0-9.72-5.4-12.42-4.86-24.84 2.7a37.829 37.829 0 0 0-16.2 16.74c-1.62 6.48-5.4 9.72-14.57 11.34a41.08 41.08 0 0 0-19.98 10.26c-3.78 4.32-8.64 6.48-10.8 5.4-8.69-1.86-17.6-2.4-26.45-1.62-18.36.54-23.76-.54-30.24-7.56-1.8-2.51-4.28-4.46-7.15-5.61a16.24 16.24 0 0 0-9.04-.87c-2.3.73-4.79.59-6.98-.41-2.2-1-3.94-2.78-4.9-4.99-4.86-9.18-32.39-10.8-48.59-1.62a50.305 50.305 0 0 1-18.36 5.4c-8.1 0-29.69-21.6-29.69-29.16 0-5.4-19.44-17.28-29.15-17.28-9.72 0-35.1-14.58-37.8-22.14-2.16-5.4-2.7-5.4-3.24 2.16a43.239 43.239 0 0 1-9.71 21.06c-10.26 11.88-12.96 29.7-5.4 36.72 2.7 3.24 1.08 7.02-5.94 14.04-8.1 8.64-12.42 9.72-22.68 8.1-6.1-1.1-11.95-3.29-17.27-6.48a8.147 8.147 0 0 0-3.91-1.64c-1.42-.19-2.87.01-4.19.56-4.32 2.16-14.04-8.1-17.82-18.36-1.62-5.4-5.4-7.02-15.12-5.94-7.01.54-14.57-1.08-16.19-3.24-3.24-3.78-9.18-2.7-25.92 3.24-10.35 4.15-21.27 6.7-32.39 7.56-7.56 0-10.8 1.08-8.64 5.4 2.16 5.4-3.78 8.64-24.29 11.88-5.69.71-11.3 1.98-16.74 3.78-1.62 1.08-7.02-2.16-11.879-7.56a37.814 37.814 0 0 0-22.136-10.8c-11.877-1.08-14.037-3.24-17.276-14.04-2.16-7.02-5.939-12.42-9.178-12.42-3.24 0-5.399-4.86-5.399-11.88 0-9.72-2.16-12.96-13.498-18.36-9.718-4.32-14.577-5.4-17.816-2.16-6.479 6.48-18.896 1.08-24.835-10.8s-17.277-15.12-17.277-5.4c.004.76-.151 1.51-.456 2.2a5.45 5.45 0 0 1-3.25 2.96c-.719.23-1.479.32-2.232.24-4.86 0-5.939-5.4-5.939-24.3a191.807 191.807 0 0 0-5.939-44.82c-3.779-11.34-5.399-21.6-4.319-22.68 1.08-1.08-2.7-5.94-7.559-11.878-11.877-12.42-11.877-14.58-.54-18.36 7.559-2.16 6.479-3.24-7.018-5.4-10.798-2.7-16.197-2.16-20.516 2.16-5.399 5.4-19.976 4.86-33.473-.54-5.399-2.7-5.399-3.78-1.62-6.48 3.779-2.7 3.239-4.32-2.7-9.18a29.7 29.7 0 0 0-12.417-5.4c-2.699 0-3.779-3.24-2.699-6.479 1.619-4.32-.001-5.4-7.559-5.4-9.718 0-14.037-7.02-7.558-13.5a37.832 37.832 0 0 0 3.779-16.2c.54-10.8-.54-13.5-7.019-13.5a26.456 26.456 0 0 1-15.117-7.56c-5.939-5.94-9.718-6.48-18.896-4.32-12.957 3.78-48.05-2.16-88.002-15.12a180.35 180.35 0 0 0-29.155-7.56 23.214 23.214 0 0 1-12.417-6.48c-3.779-3.24-8.638-5.4-10.798-3.78-5.399 3.78-8.098 23.22-3.239 29.16 3.779 5.4 3.779 5.4-2.16 1.08-10.258-8.1-24.295-4.32-23.215 5.94 1.08 10.26-9.718 12.42-18.357 3.78-4.319-3.78-4.859-1.62-2.699 10.8 4.319 34.02 4.319 35.099-2.16 36.179-3.779 1.08-10.797-2.699-15.117-8.099-4.319-5.4-10.797-9.18-13.497-8.1-5.939 2.7-12.417-5.4-14.037-17.82a12.416 12.416 0 0 0-9.178-10.8 24.301 24.301 0 0 1-12.958-9.18 10.796 10.796 0 0 0-10.797-5.4 30.236 30.236 0 0 1-15.117 0c-7.019-1.62-9.718-4.86-9.718-12.96 0-13.5-5.399-18.36-10.798-8.64-3.24 5.4-3.78 2.16-2.7-11.88 1.08-15.12 0-19.44-6.479-22.68-3.779-2.16-7.018-5.4-6.478-8.64 1.08-10.799-1.08-14.579-9.178-13.499-6.479 1.08-9.179-1.08-10.258-7.56-1.08-7.56-2.7-8.1-16.197-6.48-9.178 1.62-15.657.54-15.657-1.62s-7.019-3.24-16.197-2.7c-13.497 0-16.736 2.16-17.816 8.64a14.047 14.047 0 0 1-7.559 10.26c-5.938 2.7-10.797-6.48-8.098-14.58 3.779-9.72-2.699-13.5-19.436-11.34-12.418 1.62-16.197 3.78-18.356 10.8-2.16 8.64-17.817 16.2-17.817 8.1 0-2.16-2.699 0-5.939 4.86-4.859 6.48-5.399 9.72-1.619 14.04 3.779 4.319 2.699 5.939-2.7 9.179-6.479 3.78-6.479 4.32 2.16 12.42 5.939 5.4 8.098 10.8 6.478 16.74a64.816 64.816 0 0 0-2.159 12.96 5.4 5.4 0 0 1-5.399 5.4c-7.559 0-8.098 13.5-1.62 17.82 10.798 6.48-15.117 7.56-30.234 1.08-14.577-5.94-17.816-5.94-26.994-1.62a42.115 42.115 0 0 1-12.958 5.4c-12.417-2.16-16.196 1.08-15.657 11.88a28.078 28.078 0 0 1-3.779 16.74c-4.319 5.4-3.779 7.02 2.7 10.26 3.779 2.16 8.638 2.7 9.718 1.62 1.079-1.08 2.699-.54 2.699 2.16s-6.479 4.32-15.657 4.32c-16.196 0-15.117-1.62-21.595 36.179-2.16 10.8-4.32 14.58-10.798 14.58-16.197 0-22.136-7.56-22.136-25.38 0-9.18-2.16-18.36-4.319-19.44a16.193 16.193 0 0 1-3.24-12.959c1.62-27 0-33.48-11.337-39.96-9.178-5.4-11.338-9.72-13.497-25.38-1.08-10.26-3.78-19.44-6.479-19.98-5.399-2.16-15.657-21.6-15.657-31.859a18.367 18.367 0 0 0-7.558-12.42c-5.94-4.86-7.559-12.42-9.718-52.92L0 705.584l9.178 9.72c8.638 9.18 10.798 9.72 17.817 5.4a11.88 11.88 0 0 1 16.196 0c6.48 4.32 7.559 4.32 7.559-4.32a16.203 16.203 0 0 1 3.78-11.88c2.159-1.62 3.778-1.08 3.778.54 0 3.24 18.357 12.96 24.295 12.96 5.94 0 2.7-11.34-3.779-15.12-6.478-3.78-5.939-4.319-.54-5.939 7.559-3.24 26.995 3.779 26.995 9.719 0 5.94 16.197 0 20.516-6.48a11.344 11.344 0 0 1 8.638-5.399c3.239 0 5.399-1.62 5.399-3.78 0-2.16 3.779-4.32 8.098-5.4 9.718-2.7 10.798-22.68 2.16-38.88a34.018 34.018 0 0 1-3.779-19.98c2.159-7.56 0-9.72-9.178-11.88-9.179-2.16-11.338-3.78-10.798-14.04a34.563 34.563 0 0 1 9.178-19.44c10.258-9.179 10.258-10.799 2.159-21.599-5.398-8.64-5.398-9.18 3.78-12.96a21.6 21.6 0 0 0 12.417-14.04c2.16-9.18.54-12.96-11.877-23.76l-14.577-13.5 10.797-11.34c12.958-14.58 16.197-14.58 18.357-3.78 1.619 5.4 5.399 7.56 14.037 7.56 8.098 0 11.338-1.08 9.718-4.32-3.779-5.4 5.939-34.559 15.117-44.819a43.18 43.18 0 0 1 15.117-10.8c7.558-2.7 10.258-18.9 3.779-23.22-2.159-1.08-2.699-5.4-1.62-9.18a9.721 9.721 0 0 0-2.159-10.8c-6.479-3.78-5.399-13.5 1.62-13.5 3.239 0 8.098-4.32 10.797-9.72 2.7-5.4 6.479-9.72 9.179-9.72 2.699 0 5.398-1.62 5.398-3.78 0-2.16 3.78-5.4 8.639-8.1 7.018-3.78 7.558-3.78 5.399 1.62-2.7 8.64 3.779 8.1 10.258 0a83.651 83.651 0 0 1 23.755-16.199c19.976-9.18 29.694-7.56 37.792 7.019 6.479 12.96 11.338 8.64 8.639-7.559-1.62-10.8-1.08-16.2 2.159-16.2 3.24 0 3.779-1.62 2.16-3.78-1.62-2.16 0-3.78 4.859-2.16a304.49 304.49 0 0 0 65.327 10.26c16.196 0 30.774-8.64 26.994-16.2-3.779-7.56 2.16-18.36 10.798-19.98 4.859-.54 8.098-3.24 7.559-5.94-.54-2.7 2.699-4.86 7.018-4.86s7.559-2.7 7.559-6.48c0-7.02 16.196-16.74 25.914-16.74 2.7 0 8.099-5.4 11.878-10.8 9.718-14.58 17.277-19.98 28.614-20.52 13.498 0 17.817-3.779 21.056-17.819 2.16-10.8 4.859-12.42 16.197-14.58a29.144 29.144 0 0 1 24.835 5.4c5.399 4.32 11.338 6.48 12.418 5.4 1.079-1.08 4.319 1.08 7.018 4.32 2.7 3.24 3.779 7.02 1.62 8.64-5.399 3.779-9.718 20.519-5.399 20.519 2.159 0 5.399 3.78 8.098 8.64 5.399 10.8 4.859 91.8-1.08 98.819a49.647 49.647 0 0 1-18.896 9.72c-11.877 3.78-16.197 3.24-24.295-1.62-14.037-9.719-26.994-48.599-26.994-83.699 0-10.8-6.479-7.56-12.418 6.48a54.016 54.016 0 0 0-6.479 25.92 12.421 12.421 0 0 1-9.178 11.88c-14.577 4.86-25.915 17.82-25.915 30.78a28.08 28.08 0 0 1-4.859 16.739c-3.239 3.24-3.239 4.86 0 4.86 3.24 0 5.399 3.78 5.399 7.56a9.185 9.185 0 0 0 7.434 8.043 9.182 9.182 0 0 0 9.843-4.803 32.41 32.41 0 0 0 3.239-14.58c0-5.94 2.7-10.26 7.019-10.8 5.399-1.08 6.478 1.62 5.938 11.88-.539 26.46 17.277 39.42 24.836 17.82 4.319-11.88 4.319-11.88 25.914-9.18 12.958 1.62 23.756 5.4 26.995 9.18 3.239 3.78 2.699 7.02.54 7.56-5.939 2.7 0 8.64 8.638 8.64a21.052 21.052 0 0 0 19.436-17.82 12.422 12.422 0 0 1 10.258-8.64 31.31 31.31 0 0 0 16.197-10.8c4.859-5.94 9.718-8.64 13.497-7.02 7.559 2.7 7.559 5.4 2.7 18.9-3.24 8.1-5.399 9.72-9.178 6.48-8.639-7.56-21.596-1.08-23.216 11.88-2.159 15.12 6.479 23.76 19.976 20.52 24.295-5.94 56.149-3.24 65.867 5.4 4.859 5.4 9.178 6.48 10.798 4.32a14.029 14.029 0 0 1 10.798-3.78c7.558 0 7.558 0 1.079 7.56-5.398 6.48-5.938 8.64-1.619 14.04a13.495 13.495 0 0 0 13.497 3.78 14.58 14.58 0 0 1 14.577 5.4 22.672 22.672 0 0 0 18.356 5.4c10.798 0 11.878 0 9.719 8.64-2.16 8.64-.54 8.64 7.018 8.1 12.418-1.62 18.356-5.4 18.356-14.58 0-14.04 10.798-12.42 24.836 2.7 14.037 15.119 20.515 27.539 16.196 31.319-1.08 1.08 1.62 5.4 5.399 9.72a44.28 44.28 0 0 1 10.258 18.9c1.08 6.48 4.319 11.88 7.019 11.88 8.098 0 14.577-10.8 11.337-19.44a16.198 16.198 0 0 1 2.16-14.04c3.239-3.78 3.779-5.4 0-5.4-6.479 0-4.859-11.34 3.779-22.14a37.803 37.803 0 0 0 8.099-18.899c0-7.02 2.159-9.72 7.558-9.72 3.779 0 16.197-7.56 25.915-17.28 9.718-9.72 18.896-17.28 19.436-17.28l10.798 3.78c13.497 5.4 12.957 17.82-1.08 35.1-8.638 9.72-10.798 16.2-9.718 23.76a17.82 17.82 0 0 1-4.319 16.199 20.525 20.525 0 0 0-5.939 9.18 102.016 102.016 0 0 1-8.098 19.98 43.206 43.206 0 0 0-5.399 25.92c2.159 7.02 1.08 10.8-3.779 11.88a6.473 6.473 0 0 0-4.574 5.579 6.496 6.496 0 0 0 .254 2.521c1.08 3.24-1.619 7.02-7.558 9.18s-9.718 5.4-9.718 7.56c0 2.16-5.399 6.48-12.418 9.72-11.877 5.4-12.957 5.4-17.816 0-2.699-4.32-4.859-5.4-4.859-3.78 0 1.62-2.7 1.08-5.399-1.62s-6.479-3.24-6.479-1.08c0 10.26 5.939 17.279 18.357 22.139 12.417 4.86 14.577 4.86 30.234-2.16 23.215-10.259 38.872-25.379 39.952-37.799 1.079-12.42 5.399-16.74 16.196-14.04 10.798 2.7 15.657 18.9 8.639 25.92-5.399 5.4-5.399 21.599 0 21.599a28.066 28.066 0 0 1 11.878 8.64l8.1 8.1-2.7-9.18a31.29 31.29 0 0 0-9.18-13.499c-5.399-4.32-5.399-5.4.54-11.88a27.577 27.577 0 0 0 7.02-16.2c0-10.26-14.579-27.54-23.217-28.08a25.384 25.384 0 0 1-10.798-3.24c-6.478-3.78 0-21.6 10.798-34.02a24.312 24.312 0 0 0 6.188-9.929 24.314 24.314 0 0 0 .831-11.671c-1.62-13.499 3.779-22.139 12.418-22.139a28.09 28.09 0 0 0 12.96-7.02c8.1-6.48 8.1-6.48 2.16 1.08a45.827 45.827 0 0 0-7.02 19.98c-1.08 10.799.54 13.499 8.64 17.279 5.39 2.7 10.25 5.94 10.25 8.1 0 2.16 2.7 3.24 5.4 3.24 7.56 0 3.78-11.88-5.94-18.9-8.63-5.939-9.71-16.199-1.62-16.199 3.24 0 5.94 1.62 5.94 3.78 0 2.16 2.7 3.78 6.48 3.78 3.78 0 5.4-2.16 4.32-7.02-1.08-4.86 0-7.56 5.4-7.02 3.78 0 5.94 1.62 5.4 3.24s0 3.24 3.78 3.24 7.02 4.32 8.64 9.72c.62 2.886 2 5.556 3.99 7.737a16.762 16.762 0 0 0 7.34 4.682c11.34 2.7 12.42 7.56 1.62 10.26-5.4 1.08-7.55 5.4-7.55 12.42s1.61 9.18 4.31 7.56c2.7-1.62 2.16 1.08-1.08 6.48a24.362 24.362 0 0 0-3.77 12.96 127.975 127.975 0 0 1 3.77 18.9c.54 3.78 12.42 3.24 12.42-1.08a8.095 8.095 0 0 0-1.45-3.488 8.068 8.068 0 0 0-2.87-2.452c-2.16-1.62-2.16-5.4 0-12.42a72.19 72.19 0 0 0 3.78-21.6 50.32 50.32 0 0 1 4.32-19.44c2.7-5.4 2.7-9.18 0-11.88a16.22 16.22 0 0 1-4.32-10.259 14.529 14.529 0 0 0-5.4-9.72c-4.86-3.24-5.4-8.1-3.78-18.36l2.16-14.58 27 .54c18.89.54 26.99 2.16 26.99 5.4s2.16 4.32 7.56 1.62c5.4-2.7 7.02-7.56 5.94-19.44 0-10.8 1.08-16.2 5.4-17.82 4.32-1.62 4.32-3.24 2.7-5.4-2.7-4.86 22.13-16.2 36.71-16.2 7.02 0 12.96-2.16 14.58-5.4 2.16-6.48 12.96-8.1 12.96-2.16 0 2.16 3.23 3.78 7.01 3.78 8.64 0 28.08-8.64 28.08-12.42 0-1.62 3.78-3.24 8.64-3.24 8.1 0 9.18-1.62 7.56-10.799-2.16-14.58 16.73-34.56 25.37-27 4.32 3.24 4.32 4.86 0 7.56-4.32 2.7-3.78 3.78 1.08 7.02a25.375 25.375 0 0 0 10.8 3.78c2.16 0 4.32 3.78 4.32 8.1 0 9.179 7.56 10.259 10.79 1.62 3.24-8.64 20.52-6.48 35.1 4.319 10.8 8.1 12.42 10.8 8.1 14.04-4.32 3.24-3.78 4.32 1.62 8.64 9.71 7.56 8.63 12.96-6.48 28.62-7.56 8.1-14.04 16.2-14.04 18.36s-7.56 12.42-17.28 22.68c-9.71 10.26-17.27 20.52-17.27 23.22 0 2.7 2.16 1.62 5.4-2.16 1.62-1.88 3.61-3.42 5.83-4.532a18.843 18.843 0 0 1 7.12-1.948 11.37 11.37 0 0 0 6.74-2.268 11.338 11.338 0 0 0 4.06-5.832c1.62-5.4 5.4-7.56 8.1-5.94 1.97.33 4 .156 5.88-.504a11.912 11.912 0 0 0 4.92-3.276c7.56-7.56 20.51-7.56 23.21 0a8.703 8.703 0 0 0 2.2 3.74 8.658 8.658 0 0 0 3.74 2.2c2.16 0 3.24-1.62 2.16-3.24-3.24-5.4 15.12-16.2 27-16.2a25.89 25.89 0 0 1 16.19 5.4c7.56 7.56 25.92 7.56 40.49 0 9.72-5.4 10.8-7.02 7.56-13.5-5.94-10.8-1.62-15.66 10.8-12.96a15.127 15.127 0 0 0 8.67.538 15.172 15.172 0 0 0 7.53-4.318c4.32-5.4 5.94-5.4 16.19 1.62 7.02 5.4 10.8 10.8 9.72 14.04a3.835 3.835 0 0 0-.36 1.945c.06.669.29 1.311.67 1.861.39.55.91.987 1.52 1.267.61.281 1.28.393 1.95.327 6.48 0 7.56 5.94 1.62 9.72-5.94 3.78 0 10.8 5.94 8.1 3.78-1.62 5.4 0 5.4 5.4.44 2.82 1.7 5.448 3.62 7.56a14.554 14.554 0 0 0 7.18 4.32c15.65 6.48 26.99 5.4 25.37-1.08-1.2-5.89-2.1-11.838-2.7-17.82-1.62-10.8-.54-12.42 4.86-9.72 8.64 5.4 20.52 1.08 20.52-7.02 0-9.18 7.02-11.34 18.35-6.48 11.34 4.86 22.14-3.24 12.42-9.18-4.86-3.24-4.32-4.32 2.7-5.94 7.02-1.62 8.1-3.78 4.32-12.96a41.014 41.014 0 0 0-8.1-12.42c-2.16-1.62-2.16-5.94-.54-9.72a27.565 27.565 0 0 0 2.7-9.18c0-1.08 7.02-5.94 16.2-10.799 13.49-7.02 16.19-7.56 17.27-2.7 1.62 7.019 8.1 8.099 8.64 1.08 0-2.7 1.62-.54 3.24 4.859 4.32 15.12 10.26 11.34 11.34-7.019 1.08-13.5 3.24-17.28 10.8-20.52 14.57-5.4 17.81-4.32 15.11 3.78-2.16 7.02-1.08 7.02 14.04 3.78a55.589 55.589 0 0 1 22.14-1.62c6.48 2.7 24.29-11.88 24.29-19.44a44.262 44.262 0 0 1 10.26-17.28c8.1-9.72 12.42-11.88 26.99-11.88 10.8 0 17.28 2.16 18.9 5.94 4.86 12.42 35.09 3.24 33.47-10.8a27.019 27.019 0 0 1 3.09-15.772 26.978 26.978 0 0 1 11.49-11.228 29.674 29.674 0 0 0 14.04-15.12c3.24-8.099 6.48-10.799 10.8-10.259 1.6.681 3.37.891 5.09.604a9.14 9.14 0 0 0 4.62-2.224 9.176 9.176 0 0 1 4.55-2.513 9.143 9.143 0 0 1 5.17.353 12.41 12.41 0 0 0 11.34-3.78c6.48-7.56-2.16-16.74-16.2-16.74-15.11 0-16.73-9.18-3.78-23.22 5.94-6.48 10.26-11.88 9.18-11.88s1.62-5.4 5.4-12.42c10.8-18.9 25.92-30.78 61.55-48.6 6.5-3.338 12.65-7.317 18.36-11.88 3.77-3.24 8.09-4.86 10.25-3.24s4.86-.54 5.94-3.78a6.453 6.453 0 0 1 3.36-4.091c.81-.408 1.7-.64 2.61-.678.91-.04 1.82.114 2.67.45 4.86 2.16 5.4 1.08 3.78-3.78-2.16-5.4 0-5.94 21.06-4.32 18.35 1.62 23.21 1.08 23.21-3.24 0-3.24-3.78-5.4-9.72-5.4-10.8 0-11.88-2.16-3.24-10.8a12.445 12.445 0 0 0 3.21-4.939c.66-1.88.85-3.89.57-5.861-1.08-3.24 1.62-6.48 6.48-8.1a85.295 85.295 0 0 0 19.44-9.72c11.34-8.1 10.8-8.1 12.41 9.72a11.939 11.939 0 0 0 4.32 7.56c2.16 1.62 1.62 4.32-2.16 6.48-3.77 2.16-4.31 4.86-3.23 5.4 1.61 2.7 16.19 5.4 25.91 6.48 2.7 0 3.78 2.16 2.16 4.86-1.62 2.7-.54 3.78 3.78 1.62 4.32-2.16 6.48 0 6.48 3.24s-1.62 5.94-3.78 5.94c-2.16 0-3.78 1.08-3.24 2.7.54 1.62-4.32 8.64-10.8 15.12-9.18 9.72-12.96 11.34-18.36 8.1-5.39-3.24-7.55-2.7-12.41 3.24a32.373 32.373 0 0 0-5.4 16.199c0 7.02-2.7 9.18-10.26 9.18a16.201 16.201 0 0 1-11.88-4.32c-3.24-5.4-8.1-4.32-10.8 2.7-2.69 7.02 8.64 17.28 17.82 14.58 4.86-1.62 8.64 2.7 14.58 14.04 8.64 17.28 6.48 27-7.56 35.1-5.4 2.16-7.02 5.94-5.4 10.26 2.16 5.4 3.24 5.4 7.02 0a18.332 18.332 0 0 1 6.06-4.679 18.324 18.324 0 0 1 7.44-1.801c4.32 0 8.1-2.16 8.1-4.32 0-4.86 16.19-.54 19.97 5.4 1.62 2.16 3.78 2.16 5.4-.54 3.24-5.4 30.23-4.86 34.01 1.08 3.78 5.94-11.33 21.6-18.89 21.6-6.48 0-7.02 6.48-.54 8.639 2.7 1.08 5.4 11.88 5.4 29.7a198.526 198.526 0 0 0 5.39 41.04 196.386 196.386 0 0 1 5.4 20.52l5.4 21.6c3.78 13.499 3.78 14.579-5.4 14.579-11.33 0-20.51 16.2-21.59 38.34-.54 13.5-1.62 15.12-6.48 10.8-4.86-4.32-5.4-2.7-3.78 11.88 1.62 11.88 1.08 16.2-2.7 16.2-8.1 0-10.26 16.74-2.7 27l16.2 26.999c9.72 17.82 23.21 26.46 23.21 14.58 0-.827.17-1.647.5-2.405a5.95 5.95 0 0 1 3.54-3.247 5.962 5.962 0 0 1 2.44-.288c4.32 0 5.4 2.16 4.32 7.02-1.08 4.86 0 8.64 8.1 10.8a43.21 43.21 0 0 0 13.5 1.62c3.67-.201 7.34.35 10.79 1.62 8.64 2.7 10.26 13.5 1.62 13.5-.85.131-1.67.431-2.41.885a6.401 6.401 0 0 0-1.88 1.755 6.54 6.54 0 0 0-1.05 2.348c-.19.845-.21 1.72-.05 2.572 0 10.26 14.57 27.54 23.21 27.54 1.95-.18 3.91.233 5.62 1.184a9.673 9.673 0 0 1 3.96 4.148 9.644 9.644 0 0 1 .94 5.663 9.706 9.706 0 0 1-2.42 5.205 33.46 33.46 0 0 0-4.32 18.899 22.713 22.713 0 0 0 1.58 12.08c1.62 3.807 4.24 7.1 7.6 9.52 8.64 6.48 9.18 7.56 4.32 21.6-4.32 11.88-4.32 15.12-.54 15.12 6.48 0 21.59 35.64 21.59 50.76 0 15.119-9.71 15.119-23.75 0a125.235 125.235 0 0 0-27-19.44c-32.39-17.28-92.86-72.36-92.86-85.86 0-10.259-8.1-26.999-12.96-26.999-2.15 0-2.15-2.16.54-4.86 7.02-7.02 5.94-47.52-1.08-54a17.82 17.82 0 0 1-5.39-11.34 12.45 12.45 0 0 0-4.32-9.72c-3.24-1.62-3.24-4.32 0-7.56 3.24-3.24 2.16-10.26-2.7-23.219-5.4-15.12-5.94-19.44-1.62-25.92 5.4-9.18 3.24-13.5-16.2-31.32a30.297 30.297 0 0 1-7.74-9.116 30.39 30.39 0 0 1-3.6-11.404c0-11.88-5.4-12.96-13.49-3.24-8.1 9.72-6.48 15.66 2.7 25.38a34.051 34.051 0 0 1 7.55 20.52c.01 8.327.73 16.637 2.16 24.84 1.62 9.72 1.08 11.88-4.32 10.8a23.76 23.76 0 0 1-11.87-9.18c-7.02-9.72-13.5-10.8-13.5-2.7a5.961 5.961 0 0 1-1.92 3.855c-1.1 1-2.53 1.551-4.02 1.545a9.743 9.743 0 0 0-5.37 2.73 9.765 9.765 0 0 0-2.73 5.37c-1.08 4.32-3.78 7.559-5.4 7.559-5.4 0-8.64 23.76-3.78 29.16 2.16 3.24 5.4 16.2 6.48 28.08a121.886 121.886 0 0 0 8.1 34.02c5.4 10.8 5.4 10.8 12.96 3.78 4.32-3.78 7.56-4.86 7.56-2.16a28.666 28.666 0 0 1-9.72 12.96 27.041 27.041 0 0 0-9.72 14.04c0 3.24-2.7 4.319-7.56 3.24-4.86-1.08-8.64-1.081-9.72 1.079s-5.93 2.7-10.25 1.62c-5.4-1.62-7.56 0-7.56 4.32 0 3.24-1.62 5.94-3.24 5.4-11.34-1.62-16.74 2.16-18.9 12.42-2.16 11.88-7.56 17.82-22.13 25.38a13.468 13.468 0 0 0-5.19 4.415 13.511 13.511 0 0 0-2.37 6.385c0 4.86-1.08 5.4-4.32 3.24s-9.18 0-18.9 9.18c-21.59 19.98-27.53 30.78-24.83 45.899 1.62 7.02 1.08 14.04 0 16.2s-3.78 10.8-3.78 21.6-2.7 21.6-5.4 24.84c-2.7 3.24-3.78 16.2-3.24 30.24.54 14.04-1.62 29.159-4.32 33.479a44.924 44.924 0 0 0-4.32 17.82c.19 2.132-.05 4.279-.7 6.318a16.113 16.113 0 0 1-3.08 5.562 12.912 12.912 0 0 0-3.02 4.712 13.095 13.095 0 0 0-.76 5.548c0 5.4 2.7 7.56 11.34 7.56 4.99.548 10-.801 14.04-3.78 1.08-2.16 6.48.54 11.34 6.48 7.55 8.64 9.71 9.72 9.71 3.78 0-8.1 8.1-9.18 8.1-.54 0 1.504.6 2.946 1.66 4.009a5.67 5.67 0 0 0 9.68-4.009 5.403 5.403 0 0 1 1.55-4.388 5.395 5.395 0 0 1 4.39-1.552c6.48 0 8.1-10.26 1.62-14.04-7.56-4.32 5.4-14.04 16.2-11.88 23.21 4.86 35.09 8.64 35.09 10.8a65.675 65.675 0 0 0 13.5 17.28c9.17 8.64 13.49 16.2 11.87 19.98-3.24 7.56 5.4 34.02 12.96 43.2a162.588 162.588 0 0 1 17.28 27.539c10.8 20.52 10.8 21.06 8.64 91.258-1.62 74.52-2.7 87.48-7.56 95.04-1.92 4.43-2.3 9.37-1.08 14.04 3.24 11.88-10.8 43.2-24.3 55.62-8.64 7.56-12.96 8.64-26.99 6.48l-16.2-2.16-2.7 16.2c-1.62 12.42-3.78 15.66-10.26 15.66-7.55 0-7.56 0-1.08-5.4h.54Zm187.35-193.32c-5.4-6.48-9.72-14.58-8.1-17.82 1.62-3.24 0-5.4-1.62-5.4-3.78 0-15.66-21.6-15.66-29.16 0-2.7-5.4-8.638-12.96-12.958a51.775 51.775 0 0 1-18.35-21.06 168.938 168.938 0 0 0-18.36-29.7 184.059 184.059 0 0 1-18.36-30.239c-3.59-8.64-8.09-12.96-13.49-12.96-8.1 0-23.76-12.42-23.76-18.9a15.608 15.608 0 0 0-5.4-8.1 16.225 16.225 0 0 1-5.94-10.8 25.407 25.407 0 0 0-6.47-13.5c-5.4-5.4-5.4-8.1-2.16-10.8 7.01-3.78 1.62-23.759-7.02-25.919-4.32-1.08-6.48-4.32-5.4-7.56 3.24-8.1 9.18-6.48 13.5 4.86a21.581 21.581 0 0 0 11.33 11.88c4.32 1.08 7.56 4.859 7.56 7.559a9.8 9.8 0 0 0 2.29 5.105 9.752 9.752 0 0 0 4.73 2.995c11.88 4.32 16.74 9.72 12.96 14.58-4.32 5.4 5.4 17.82 19.97 24.3 5.94 2.7 10.8 6.48 10.8 9.18.13 1.05.65 2.014 1.44 2.711.8.697 1.82 1.077 2.88 1.069 2.7 0 15.12 9.18 28.62 21.06a201.136 201.136 0 0 0 37.79 27l13.5 5.4-18.9.54c-22.68.54-24.84 4.859-16.2 30.239 8.64 25.38 20.52 44.278 28.62 44.278 5.06.57 9.9 2.43 14.03 5.4a18.52 18.52 0 0 0 6.57 3.63c2.42.74 4.96.98 7.47.69 8.64-2.7 18.36 17.28 10.8 21.6a8.626 8.626 0 0 1-4.25 1.43 8.57 8.57 0 0 1-4.39-.89c-1.62-1.08-1.08-3.78 2.16-5.4 3.78-2.16 3.78-3.24 0-3.24-8.1 0-19.44 14.04-16.2 19.98 9.72 15.12 0 14.58-13.49-1.08h-.54Zm-17.28-12.96c0-4.32.54-6.48 2.16-5.4a7.587 7.587 0 0 1 0 7.56c-1.08 3.24-2.16 2.7-2.16-2.16Zm108.52-16.74c0-10.8 2.16-16.2 6.48-18.36 5.4-2.16 5.4 0 3.78 12.42-4.32 21.6-10.26 25.38-10.26 5.94Zm14.57-27c-5.39-5.398-3.23-39.418 3.24-41.578a9.725 9.725 0 0 0 3.93-3.555 9.725 9.725 0 0 0 1.47-5.085c0-3.24 2.16-5.4 4.32-5.4 5.4 0 4.86 4.32-2.16 20.52a36.749 36.749 0 0 0-3.24 19.44c2.16 7.02-3.78 19.978-7.56 16.198v-.54Zm21.06-77.757c0-7.02 1.08-14.04 3.24-15.12 4.86-2.7 4.86 8.64 0 19.44-2.7 7.02-3.24 5.94-3.24-4.32Zm11.88-59.4c0-5.4 1.08-8.1 2.16-5.4a15.118 15.118 0 0 1 0 9.72c-1.62 3.24-2.16 1.08-2.16-4.32Zm-387.64-19.98c-1.62-2.16-.54-3.78 1.62-3.78.96.115 1.85.55 2.54 1.235a4.264 4.264 0 0 1 1.23 2.545c0 2.16-.54 4.32-1.61 4.32-1.08 0-2.7-1.62-3.78-3.78v-.54Zm373.06-50.759c-3.24-5.4-.54-7.56 5.4-3.78 3.78 2.16 3.78 4.32 1.08 5.4a5.41 5.41 0 0 1-6.48-1.08v-.54Zm-5.4-27c.11-.716.41-1.386.88-1.933.48-.547 1.1-.946 1.79-1.151a3.792 3.792 0 0 1 3.92 1.135c.47.544.78 1.213.89 1.928.11.715.01 1.446-.29 2.105-.29.66-.77 1.221-1.38 1.618-.6.396-1.31.61-2.03.618-1 0-1.96-.398-2.67-1.107a3.78 3.78 0 0 1-1.11-2.673v-.54Zm-4.32-21.6a28.087 28.087 0 0 1 0-6.48 22.08 22.08 0 0 0-3.24-10.8 8.635 8.635 0 0 1-1.62-5.495 8.615 8.615 0 0 1 2.16-5.305c5.4-5.4 12.42-5.94 8.64-.54a8.08 8.08 0 0 0-.46 4.559 8.135 8.135 0 0 0 2.08 4.081c2.7 3.24 2.16 7.56-1.62 14.58-3.24 5.4-5.4 8.1-5.94 5.94v-.54Zm-252.67-154.979c0-.54 1.62-2.7 3.78-3.78 2.16-1.08 3.78-.54 3.78 1.62a3.81 3.81 0 0 1-1.1 2.673 3.785 3.785 0 0 1-2.68 1.107c-2.16 0-3.78 0-3.78-1.62ZM832.513 413.987c0-6.48 1.62-11.34 3.78-11.34 2.159 0 3.779 5.4 3.779 11.34 0 5.94-1.62 11.88-3.779 11.88-2.16 0-3.78-5.4-3.78-11.88Zm539.357-15.12c-1.62-1.62 0-4.32 3.23-5.4 3.24-1.08 5.94-1.08 5.94 1.08 0 5.4-6.47 8.64-9.17 4.32Zm-383.868-15.66c-3.779-2.7-3.779-3.78 0-5.94 5.399-3.24 9.179-.54 7.019 5.4-1.08 2.16-3.779 2.7-6.479.54h-.54Zm-172.765-11.88c-8.098-9.72-9.718-14.04-5.939-17.82 5.399-7.02 1.08-25.379-6.479-25.379-4.859 0-5.398-1.62-2.159-7.02a9.718 9.718 0 0 1 11.338-5.4c4.859 1.08 11.877-2.16 18.356-8.1 12.417-11.88 16.737-12.42 26.995-4.32 7.558 5.4 7.558 5.94-9.179 20.52-15.117 14.039-17.276 17.279-19.436 37.799l-2.159 22.68-11.338-12.96Zm-97.181-2.7c-4.319-4.86-2.699-8.64 5.399-12.96 6.479-3.24 8.639-3.24 10.798 2.16 2.7 8.64-9.718 17.28-16.197 10.8Zm907.014-48.599c-4.31-12.42 6.48-18.9 22.14-12.42 9.18 3.24 7.56 7.02-3.78 12.42-12.96 5.4-16.2 5.4-18.36 0Zm-758.003-18.9c-2.7-5.4-2.7-7.56 0-7.56 2.699 0 3.779-2.16 3.239-4.86s1.62-4.32 5.399-3.78c3.779.54 7.018 0 7.018-2.16s5.399-5.94 11.878-8.64 11.338-5.94 11.338-7.56c0-1.62 4.859-2.7 10.258-3.24a48.574 48.574 0 0 0 16.196-4.32 19.986 19.986 0 0 1 15.657 0 19.432 19.432 0 0 0 12.958 1.08 9.719 9.719 0 0 1 9.718 2.7c3.239 3.24 12.417 3.78 26.994 2.16 16.2-1.62 21.6-.54 23.22 3.78.62 1.26.94 2.646.94 4.05s-.32 2.79-.94 4.05c-3.78 3.78-40.496 8.1-45.355 5.4-2.16-1.62-12.958-1.08-24.295.54l-31.314 4.32a24.83 24.83 0 0 0-13.497 4.86 21.591 21.591 0 0 1-12.418 4.32 23.21 23.21 0 0 0-14.037 7.02c-5.399 7.56-8.098 7.56-12.957-2.16Zm743.973 6.48c0-1.08 1.62-2.7 3.78-4.32 2.16-1.62 3.78 0 3.78 2.16a3.783 3.783 0 0 1-3.78 3.78c-2.16 0-3.78-1.08-3.78-1.62Zm-1504.681-7.02a50.229 50.229 0 0 1-6.479-11.88 12.42 12.42 0 0 0-11.878-7.02 16.193 16.193 0 0 1-12.417-3.78c-1.62-2.7 1.08-3.24 7.558-1.62 8.099 2.16 10.258 1.08 10.258-5.4a9.72 9.72 0 0 1 9.718-9.72 9.715 9.715 0 0 1 9.718 9.72c0 1.62 2.7 3.24 5.399 3.24 5.399 0 6.479 3.24 5.399 14.58-1.08 15.12-10.258 21.6-17.276 11.88Zm1470.661-4.86c-9.71-4.32-17.81-22.68-14.03-31.32 2.16-7.02 6.48-7.56 17.27-1.62 9.18 5.4 14.58 1.62 8.1-5.4-7.56-7.02-5.4-8.64 12.42-9.18 17.82-.54 28.61 5.4 23.76 14.04-3.78 6.48-16.74 4.86-21.6-2.7-2.7-4.86-3.78-5.4-2.7-1.08a21.066 21.066 0 0 0 10.26 10.26l8.1 4.32-10.8 7.02a30.75 30.75 0 0 1-14.04 6.48c-1.62-.54-2.16 1.62-1.08 4.86 2.7 7.02-5.4 9.18-16.2 4.32h.54Zm-313.13-23.76a73.911 73.911 0 0 0 8.64-19.98 4.318 4.318 0 0 1 .63-3.576 4.36 4.36 0 0 1 1.37-1.258 4.375 4.375 0 0 1 1.77-.566 3.81 3.81 0 0 1 1.59.33c.5.223.94.55 1.3.961.36.41.62.893.78 1.416.15.523.19 1.073.11 1.613 0 .545.11 1.085.33 1.583.23.498.55.942.96 1.301a3.774 3.774 0 0 0 3.03.896c6.48 0 16.2 11.34 14.04 16.74a19.967 19.967 0 0 1-12.96 7.56c-6.88 1.64-13.72 3.44-20.51 5.4l-8.64 2.16 7.56-14.58Zm-31.32-15.66c-13.49-7.02-14.57-21.6-2.16-30.78 10.8-7.56 16.2-7.56 12.96 0-1.62 4.86 0 5.4 5.4 3.78 8.64-2.7 13.5 3.78 9.72 12.96a29.695 29.695 0 0 0-2.16 13.5c1.08 8.1-9.18 8.64-23.76.54Zm400.06-12.42c-2.16-3.78 5.4-10.8 13.5-11.34 5.11-.965 10.16-2.227 15.12-3.78 9.72-2.7 9.72-2.7 3.78 6.48-5.94 9.18-28.62 15.12-32.4 8.64Zm-423.27-15.12c-4.86-4.86-2.7-9.18 3.24-6.48 3.24 1.08 5.4 3.78 5.4 5.4 0 4.32-5.4 4.86-8.64 1.08Zm7.56-15.12c-3.24-8.099 3.78-21.599 10.79-21.599a8.078 8.078 0 0 0 7.02-4.86c2.16-6.48 5.4-2.7 8.64 9.18 3.24 11.879-1.08 17.819-14.04 21.599-7.01 1.62-10.79.54-12.41-4.32Zm686.2-18.899c0-1.08 2.7-2.7 5.94-3.78 3.24-1.08 5.4 0 5.4 1.62s-2.16 3.78-5.4 3.78-5.4-.54-5.4-1.62h-.54Zm-869.77-53.46a6.564 6.564 0 0 1-.95-3.867c.1-1.357.62-2.649 1.49-3.693 4.86-4.32 15.12 2.16 11.88 7.56a6.487 6.487 0 0 1-2.34 3.344 6.443 6.443 0 0 1-3.87 1.285 6.487 6.487 0 0 1-6.21-4.629Zm21.6.54c0-2.16 3.78-3.78 8.1-3.78s7.02 1.62 5.4 3.78a10.943 10.943 0 0 1-3.64 2.767c-1.4.652-2.92.998-4.46 1.013-2.7 0-5.4-1.62-5.4-3.78Zm-32.93-27c-1.62-2.16 0-2.7 3.77-1.62 6.48 2.7 7.56 5.4 2.16 5.4a8.089 8.089 0 0 1-3.4-1.211 8.03 8.03 0 0 1-2.53-2.569Zm-46.975-15.66c-11.878-2.7-9.718-4.32 8.638-5.4 5.399 0 10.798 2.16 11.878 4.86 1.62 4.86-2.7 5.4-20.516 0v.54Zm-7.019-14.04a9.182 9.182 0 0 1-2.699-5.4c0-3.78 15.117 0 17.816 4.32 2.7 4.32-10.797 4.86-15.117 1.08Zm955.614-15.12c-7.02-14.04-5.94-20.52 2.69-25.38 8.64-4.86 9.18-3.78 8.1 16.2-1.08 17.28-5.4 21.6-10.79 9.18Z" fill="#F3F6F8"/></mask><g mask="url(#a)"><path fill="#F3F6F8" d="M-72-19h708v1098H-72z"/></g></svg>