<svg width="20" height="20" viewBox="0 0 20 20" fill="none" xmlns="http://www.w3.org/2000/svg">
<g clip-path="url(#clip0_65_231)">
<path d="M18.3333 4.76647L14.5 1.5498L13.425 2.8248L17.2583 6.04147L18.3333 4.76647ZM6.56663 2.8248L5.49996 1.5498L1.66663 4.75814L2.74163 6.03314L6.56663 2.8248ZM10.4166 6.66647H9.16663V11.6665L13.125 14.0415L13.75 13.0165L10.4166 11.0415V6.66647ZM9.99996 3.33314C5.85829 3.33314 2.49996 6.69147 2.49996 10.8331C2.49996 14.9748 5.84996 18.3331 9.99996 18.3331C14.1416 18.3331 17.5 14.9748 17.5 10.8331C17.5 6.69147 14.1416 3.33314 9.99996 3.33314ZM9.99996 16.6665C6.77496 16.6665 4.16663 14.0581 4.16663 10.8331C4.16663 7.60814 6.77496 4.9998 9.99996 4.9998C13.225 4.9998 15.8333 7.60814 15.8333 10.8331C15.8333 14.0581 13.225 16.6665 9.99996 16.6665Z" fill="#2C4776"/>
</g>
<defs>
<clipPath id="clip0_65_231">
<rect width="20" height="20" fill="white"/>
</clipPath>
</defs>
</svg>
