<svg width="20" height="20" viewBox="0 0 20 20" fill="none" xmlns="http://www.w3.org/2000/svg">
<g clip-path="url(#clip0_205_44)">
<path d="M16.6666 5.00033H14.1666V3.33366C14.1666 2.40866 13.425 1.66699 12.5 1.66699H7.49996C6.57496 1.66699 5.83329 2.40866 5.83329 3.33366V5.00033H3.33329C2.40829 5.00033 1.66663 5.74199 1.66663 6.66699V15.8337C1.66663 16.7587 2.40829 17.5003 3.33329 17.5003H16.6666C17.5916 17.5003 18.3333 16.7587 18.3333 15.8337V6.66699C18.3333 5.74199 17.5916 5.00033 16.6666 5.00033ZM7.49996 3.33366H12.5V5.00033H7.49996V3.33366ZM16.6666 15.8337H3.33329V14.167H16.6666V15.8337ZM16.6666 11.667H3.33329V6.66699H5.83329V8.33366H7.49996V6.66699H12.5V8.33366H14.1666V6.66699H16.6666V11.667Z" fill="#2C4776"/>
</g>
<defs>
<clipPath id="clip0_205_44">
<rect width="20" height="20" fill="white"/>
</clipPath>
</defs>
</svg>
