<svg width="20" height="20" viewBox="0 0 20 20" fill="none" xmlns="http://www.w3.org/2000/svg">
<path d="M10.0944 0.833008C5.86 0.833008 2.5 4.34281 2.5 8.5446C2.5 10.8802 3.92229 13.3832 5.48503 15.4196C6.26639 16.4378 7.09273 17.3273 7.85319 17.9863C8.23342 18.3159 8.59657 18.5876 8.9502 18.7936C9.30382 18.9996 9.63628 19.1663 10.0944 19.1663C10.5672 19.1663 10.8638 18.9872 11.1963 18.7806C11.5287 18.574 11.8732 18.3034 12.238 17.9749C12.9675 17.3179 13.7746 16.4315 14.5426 15.4147C16.0787 13.3812 17.5 10.8802 17.5 8.5446C17.5 4.34281 14.1645 0.833008 10.0944 0.833008ZM10.0944 2.49967C13.1993 2.49967 15.8333 5.22471 15.8333 8.5446C15.8333 10.1381 14.6304 12.5301 13.2113 14.4089C12.5017 15.3482 11.7483 16.1718 11.1214 16.7363C10.808 17.0186 10.5254 17.237 10.3174 17.3662C10.2062 17.4353 10.1141 17.4673 10.07 17.4834C10.0317 17.4695 9.94035 17.4417 9.78841 17.3532C9.56551 17.2234 9.26981 17.0078 8.94531 16.7266C8.29632 16.1641 7.52805 15.3419 6.80827 14.404C5.36871 12.5281 4.16667 10.1381 4.16667 8.5446C4.16667 5.22471 6.77714 2.49967 10.0944 2.49967Z" fill="#2C4776"/>
</svg>
